<svg width="20" height="17" viewBox="0 0 20 17" fill="none" xmlns="http://www.w3.org/2000/svg">
<path d="M0 14.44C0.266667 14.56 0.626667 14.7267 1.08 14.94V11.64C0.626667 11.8533 0.266667 12.02 0 12.14V14.44ZM15.68 3.38C13.72 1.66 11.3267 1.01333 8.5 1.44C7.24667 1.61333 6.09333 2.06667 5.04 2.8C4.01333 3.52 3.2 4.42 2.6 5.5C1.97333 6.60667 1.64 7.78667 1.6 9.04C1.57333 9.98667 1.56667 11.4133 1.58 13.32L1.6 15.46C1.6 15.82 1.71333 16.1133 1.94 16.34C2.18 16.5667 2.48 16.68 2.84 16.68C3.21333 16.6933 3.78 16.7 4.54 16.7C4.98 16.6867 5.31333 16.5667 5.54 16.34C5.78 16.1133 5.9 15.78 5.9 15.34V11.26C5.9 10.8067 5.78 10.46 5.54 10.22C5.3 9.98 4.95333 9.86 4.5 9.86H3C2.93333 7.06 4.00667 5.01333 6.22 3.72C7.52667 2.94667 8.84 2.58 10.16 2.62C11.4933 2.64667 12.8 3.07333 14.08 3.9C16.1067 5.23333 17.08 7.22 17 9.86H15.46C15.0467 9.86 14.72 9.98 14.48 10.22C14.24 10.4467 14.12 10.7733 14.12 11.2C14.1067 12.5733 14.1067 13.9533 14.12 15.34C14.12 15.7667 14.2333 16.0933 14.46 16.32C14.6867 16.5467 15.0067 16.6667 15.42 16.68C15.7667 16.6933 16.2933 16.7 17 16.7C17.9333 16.6867 18.4 16.2067 18.4 15.26V13.26C18.4133 11.4867 18.4133 10.1533 18.4 9.26C18.3867 6.92667 17.48 4.96667 15.68 3.38ZM20 12.42C20 12.4067 19.9933 12.3867 19.98 12.36C19.9667 12.24 19.94 12.1667 19.9 12.14C19.7 12.0067 19.3733 11.8267 18.92 11.6V14.94L19.2 14.8C19.4267 14.6667 19.5933 14.58 19.7 14.54C19.82 14.4867 19.9 14.4267 19.94 14.36C19.98 14.2933 20 14.2 20 14.08C19.9867 13.8267 19.9867 13.46 20 12.98V12.42Z" fill="white"/>
</svg>
