<svg xmlns="http://www.w3.org/2000/svg" width="14" height="15" viewBox="0 0 14 15" fill="none"><path d="M8.80833 8.1146C10.0722 7.39665 10.8889 5.9787 10.8889 4.66844C10.8889 2.80178 9.23611 0.719727 7 0.719727C4.76389 0.719727 3.11111 2.80178 3.11111 4.66844C3.11111 5.9787 3.92778 7.39665 5.19167 8.1146C2.19722 8.8505 0 11.3813 0 14.3608C0 14.5582 0.175 14.7197 0.388889 14.7197H13.6111C13.825 14.7197 14 14.5582 14 14.3608C14 11.3813 11.8028 8.8505 8.80833 8.1146ZM3.88889 4.66844C3.88889 2.81973 5.54167 1.43768 7 1.43768C8.45833 1.43768 10.1111 2.81973 10.1111 4.66844C10.1111 6.51716 8.45833 7.89921 7 7.89921C5.54167 7.89921 3.88889 6.51716 3.88889 4.66844ZM0.797222 14.0018C0.991667 11.0043 3.71389 8.61716 7 8.61716C10.2861 8.61716 13.0083 11.0043 13.2028 14.0018H0.797222Z" fill=""></path></svg>